<svg width="141" height="156" viewBox="0 0 141 156" fill="none" xmlns="http://www.w3.org/2000/svg">
<path id="Vector" d="M84.6 85.0909H95.175V105.087L112.377 115.085L107.09 124.304L84.6 111.256V85.0909ZM112.8 49.6364H14.1V127.636H47.0235C43.992 121.184 42.3 113.951 42.3 106.364C42.3 93.1993 47.4994 80.5741 56.7543 71.2654C66.0092 61.9568 78.5616 56.7273 91.65 56.7273C99.1935 56.7273 106.385 58.4291 112.8 61.4782V49.6364ZM14.1 141.818C10.3604 141.818 6.77406 140.324 4.12979 137.664C1.48553 135.005 0 131.398 0 127.636V28.3636C0 20.4927 6.2745 14.1818 14.1 14.1818H21.15V0H35.25V14.1818H91.65V0H105.75V14.1818H112.8C116.54 14.1818 120.126 15.676 122.77 18.3356C125.414 20.9952 126.9 24.6024 126.9 28.3636V71.6182C135.642 80.5527 141 92.82 141 106.364C141 119.528 135.801 132.153 126.546 141.462C117.291 150.77 104.738 156 91.65 156C78.1845 156 65.988 150.611 57.105 141.818H14.1ZM91.65 71.9727C82.5816 71.9727 73.8846 75.596 67.4723 82.0456C61.0599 88.4951 57.4575 97.2426 57.4575 106.364C57.4575 125.367 72.756 140.755 91.65 140.755C96.1402 140.755 100.586 139.865 104.735 138.137C108.883 136.408 112.653 133.875 115.828 130.682C119.003 127.488 121.521 123.697 123.24 119.524C124.958 115.352 125.843 110.88 125.843 106.364C125.843 87.36 110.544 71.9727 91.65 71.9727Z" fill="#EDEDED"/>
</svg>
